<svg xmlns="http://www.w3.org/2000/svg" xmlns:xlink="http://www.w3.org/1999/xlink" version="1.1" x="0px" y="0px" viewBox="0 0 500 500" style="enable-background:new 0 0 500 500;" xml:space="preserve">



<g id="Screen">
	<g>
		<g>
			<path style="fill:#FFFFFF;" d="M356.604,239.032H170.339c-4.345,0-7.867-3.522-7.867-7.867V86.625     c0-4.345,3.522-7.867,7.867-7.867h186.265c4.345,0,7.867,3.522,7.867,7.867v144.54     C364.47,235.51,360.948,239.032,356.604,239.032z"/>
			<path style="fill:#455A64;" d="M325.484,157.835c-4.131-4.166-10.823-4.298-15.115-0.3l-18.9,17.603     c0,0-14.457,12.839-23.832,19.126c-1.082,0.726-2.37,1.501-3.801,1.343c-1.135-0.126-1.998-0.811-2.767-1.455     c-8.302-6.964-16.605-13.929-24.907-20.894l-9.079-7.561c-7.004-5.833-17.122-6.026-24.333-0.451     c-18.625,14.4-39.986,31.644-39.986,31.644l-0.246,35.527c-0.025,3.648,3.878,6.615,8.701,6.615h184.075     c5.068,0,9.177-3.107,9.177-6.94v-34.94L325.484,157.835z"/>
			<g>
				
					<ellipse transform="matrix(0.7071 -0.7071 0.7071 0.7071 -3.2489 248.7415)" style="fill:#455A64;" cx="298.633" cy="128.293" rx="13.426" ry="13.426"/>
			</g>
			<g>
				<path style="fill:#263238;" d="M356.604,239.032c0,0,0.155-0.017,0.461-0.037c0.306-0.011,0.763-0.07,1.351-0.209      c1.146-0.285,2.946-0.989,4.391-2.883c0.708-0.933,1.309-2.151,1.505-3.593c0.116-0.715,0.087-1.48,0.087-2.28      c-0.002-0.799-0.004-1.631-0.006-2.497c-0.007-3.464-0.015-7.459-0.024-11.955c-0.02-17.997-0.048-44.027-0.083-76.19      c-0.01-16.084-0.02-33.702-0.032-52.614c0.058-2.315-1.021-4.619-2.841-6.092c-0.912-0.73-1.993-1.256-3.141-1.515      c-1.141-0.283-2.362-0.159-3.588-0.187c-4.886,0.002-9.85,0.004-14.887,0.006c-10.074,0.004-20.442,0.007-31.075,0.011      c-42.531,0.006-89.288,0.013-138.367,0.02c-2.99-0.04-5.863,1.863-7.005,4.602c-0.277,0.682-0.482,1.395-0.564,2.128      c-0.072,0.723-0.053,1.489-0.054,2.25c0,1.52,0,3.038,0,4.553c0,6.061-0.001,12.081-0.001,18.057      c-0.001,11.953-0.003,23.731-0.004,35.304c-0.005,23.146-0.01,45.472-0.015,66.741c-0.002,5.317-0.003,10.568-0.005,15.749      c0.027,1.285-0.069,2.613,0.083,3.836c0.175,1.234,0.643,2.427,1.387,3.421c1.449,2.029,3.916,3.214,6.376,3.143      c10.075,0.005,19.856,0.009,29.313,0.013c18.914,0.012,36.531,0.022,52.616,0.032c32.163,0.035,58.191,0.063,76.186,0.083      c8.99,0.021,15.971,0.038,20.713,0.049c2.363,0.011,4.166,0.02,5.387,0.026C355.982,239.014,356.604,239.032,356.604,239.032      s-0.622,0.018-1.835,0.027c-1.221,0.006-3.024,0.014-5.387,0.026c-4.742,0.011-11.724,0.028-20.713,0.049      c-17.995,0.02-44.023,0.048-76.186,0.083c-16.084,0.01-33.702,0.02-52.616,0.032c-9.457,0.004-19.238,0.008-29.313,0.013      c-2.581,0.078-5.219-1.178-6.751-3.327c-0.789-1.054-1.289-2.32-1.475-3.63c-0.162-1.334-0.06-2.598-0.09-3.901      c-0.002-5.181-0.004-10.432-0.005-15.749c-0.005-21.268-0.01-43.595-0.015-66.741c-0.001-11.573-0.003-23.351-0.004-35.304      c0-5.977-0.001-11.997-0.001-18.057c0-1.515,0-3.033,0-4.553c0.003-0.758-0.02-1.517,0.058-2.309      c0.088-0.783,0.306-1.546,0.603-2.275c1.219-2.927,4.291-4.96,7.483-4.917c49.078,0.007,95.836,0.014,138.367,0.021      c10.632,0.004,21.001,0.007,31.075,0.011c5.037,0.002,10.001,0.004,14.887,0.006c1.208,0.03,2.453-0.1,3.684,0.201      c1.215,0.276,2.358,0.833,3.321,1.606c1.923,1.554,3.061,4.006,2.997,6.433c-0.011,18.912-0.022,36.53-0.032,52.614      c-0.035,32.163-0.063,58.193-0.083,76.19c-0.009,4.497-0.017,8.492-0.024,11.955c-0.002,0.866-0.004,1.698-0.006,2.497      c-0.004,0.795,0.021,1.569-0.101,2.299c-0.208,1.464-0.826,2.697-1.551,3.637c-1.478,1.908-3.305,2.601-4.462,2.871      c-0.594,0.131-1.054,0.181-1.361,0.184C356.759,239.033,356.604,239.032,356.604,239.032z"/>
			</g>
		</g>
		<g>
			<path style="fill:#FFFFFF;" d="M171.628,220.824v0.57h-2.67v-0.45l1.439-1.367c0.352-0.336,0.414-0.548,0.414-0.75     c0-0.331-0.228-0.523-0.673-0.523c-0.352,0-0.647,0.119-0.848,0.378l-0.471-0.362c0.279-0.378,0.782-0.601,1.376-0.601     c0.787,0,1.294,0.398,1.294,1.04c0,0.352-0.098,0.673-0.6,1.144l-0.968,0.921H171.628z"/>
			<path style="fill:#FFFFFF;" d="M171.992,219.028c0-0.259,0.191-0.43,0.424-0.43c0.233,0,0.424,0.171,0.424,0.43     c0,0.248-0.192,0.429-0.424,0.429C172.183,219.457,171.992,219.276,171.992,219.028z M171.992,221     c0-0.259,0.191-0.429,0.424-0.429c0.233,0,0.424,0.17,0.424,0.429c0,0.248-0.192,0.429-0.424,0.429     C172.183,221.429,171.992,221.248,171.992,221z"/>
			<path style="fill:#FFFFFF;" d="M174.526,217.77v3.623h-0.672v-3.059h-0.766v-0.565H174.526z"/>
			<path style="fill:#FFFFFF;" d="M178.473,220.571h-0.642v0.822h-0.652v-0.822h-1.988v-0.467l1.785-2.334h0.72l-1.682,2.231h1.186     v-0.73h0.632v0.73h0.642V220.571z"/>
		</g>
		<g>
			<rect x="184.392" y="219.122" style="fill:#FFFFFF;" width="140.993" height="1.253"/>
		</g>
		<g>
			<rect x="184.186" y="217.772" style="fill:#FF725E;" width="85.897" height="3.342"/>
		</g>
		<g>
			<path style="fill:#FF725E;" d="M272.857,219.749c0,2.31-1.872,4.182-4.182,4.182c-2.31,0-4.182-1.872-4.182-4.182     c0-2.31,1.872-4.182,4.182-4.182C270.984,215.567,272.857,217.439,272.857,219.749z"/>
		</g>
		<g>
			<path style="fill:#FFFFFF;" d="M334.701,220.468c0,0.721-0.585,1.176-1.325,1.176c-0.988,0-1.568-0.636-1.568-1.801     c0-1.243,0.725-1.925,1.775-1.925c0.362,0,0.709,0.077,0.952,0.232l-0.248,0.508c-0.197-0.13-0.435-0.176-0.689-0.176     c-0.683,0-1.113,0.425-1.113,1.247v0.006c0.218-0.254,0.565-0.378,0.968-0.378C334.168,219.356,334.701,219.79,334.701,220.468z      M334.048,220.499c0-0.378-0.285-0.615-0.724-0.615c-0.435,0-0.735,0.264-0.735,0.621c0,0.341,0.269,0.61,0.75,0.61     C333.759,221.115,334.048,220.877,334.048,220.499z"/>
			<path style="fill:#FFFFFF;" d="M335.028,219.226c0-0.259,0.191-0.43,0.424-0.43c0.232,0,0.424,0.171,0.424,0.43     c0,0.248-0.192,0.429-0.424,0.429C335.218,219.655,335.028,219.474,335.028,219.226z M335.028,221.198     c0-0.259,0.191-0.429,0.424-0.429c0.232,0,0.424,0.17,0.424,0.429c0,0.248-0.192,0.429-0.424,0.429     C335.218,221.627,335.028,221.446,335.028,221.198z"/>
			<path style="fill:#FFFFFF;" d="M336.309,219.78c0-1.19,0.652-1.863,1.511-1.863c0.865,0,1.517,0.673,1.517,1.863     c0,1.19-0.652,1.863-1.517,1.863C336.961,221.644,336.309,220.97,336.309,219.78z M338.659,219.78     c0-0.875-0.341-1.278-0.839-1.278c-0.491,0-0.833,0.404-0.833,1.278c0,0.875,0.342,1.278,0.833,1.278     C338.318,221.058,338.659,220.655,338.659,219.78z"/>
			<path style="fill:#FFFFFF;" d="M339.788,219.78c0-1.19,0.652-1.863,1.511-1.863c0.865,0,1.517,0.673,1.517,1.863     c0,1.19-0.652,1.863-1.517,1.863C340.44,221.644,339.788,220.97,339.788,219.78z M342.138,219.78     c0-0.875-0.341-1.278-0.839-1.278c-0.491,0-0.833,0.404-0.833,1.278c0,0.875,0.342,1.278,0.833,1.278     C341.797,221.058,342.138,220.655,342.138,219.78z"/>
		</g>
		<g>
			<polygon style="fill:#FFFFFF;" points="348.669,219.555 347.416,219.555 347.416,215.942 351.022,215.942 351.022,217.195      348.669,217.195    "/>
		</g>
		<g>
			<polygon style="fill:#FFFFFF;" points="351.025,224.27 347.412,224.27 347.412,220.665 348.665,220.665 348.665,223.017      351.025,223.017    "/>
		</g>
		<g>
			<polygon style="fill:#FFFFFF;" points="356.779,224.27 353.172,224.27 353.172,223.017 355.525,223.017 355.525,220.656      356.779,220.656    "/>
		</g>
		<g>
			<polygon style="fill:#FFFFFF;" points="356.782,219.548 355.529,219.548 355.529,217.195 353.169,217.195 353.169,215.942      356.782,215.942    "/>
		</g>
	</g>
</g>
<g id="Button">
	<g>
		<g>
			<g>
				<g>
					
						<ellipse transform="matrix(0.1591 -0.9873 0.9873 0.1591 71.6186 387.8395)" style="fill:#FF725E;" cx="263.471" cy="151.88" rx="22.754" ry="22.754"/>
					<g>
						<path style="fill:#263238;" d="M286.225,151.88c-0.009,0-0.024-0.125-0.045-0.368c-0.02-0.269-0.047-0.626-0.08-1.079        c-0.016-0.24-0.033-0.504-0.053-0.794c-0.032-0.291-0.096-0.606-0.149-0.948c-0.112-0.685-0.218-1.479-0.483-2.342        c-0.406-1.752-1.233-3.822-2.531-6.014c-1.309-2.183-3.194-4.462-5.757-6.395c-2.555-1.915-5.777-3.543-9.496-4.198        c-3.693-0.632-7.861-0.516-11.829,0.993c-1.01,0.324-1.959,0.824-2.935,1.292c-0.924,0.559-1.898,1.075-2.759,1.775        c-0.915,0.628-1.714,1.414-2.552,2.171c-0.757,0.838-1.552,1.658-2.204,2.609c-1.339,1.86-2.508,3.926-3.215,6.198        c-0.733,2.258-1.128,4.656-1.16,7.097c0.032,2.442,0.426,4.841,1.159,7.1c0.707,2.273,1.876,4.34,3.215,6.2        c0.652,0.951,1.447,1.772,2.204,2.61c0.838,0.757,1.637,1.543,2.552,2.171c0.86,0.7,1.835,1.216,2.759,1.775        c0.976,0.469,1.925,0.969,2.935,1.292c3.969,1.509,8.137,1.626,11.83,0.993c3.718-0.656,6.941-2.284,9.496-4.199        c2.563-1.933,4.448-4.212,5.757-6.395c1.298-2.192,2.125-4.261,2.531-6.014c0.265-0.863,0.371-1.657,0.482-2.342        c0.053-0.343,0.117-0.658,0.149-0.948c0.019-0.29,0.037-0.554,0.053-0.794c0.034-0.453,0.06-0.809,0.08-1.079        C286.201,152.004,286.216,151.88,286.225,151.88s0.012,0.125,0.008,0.369c-0.007,0.27-0.017,0.629-0.029,1.084        c-0.008,0.242-0.018,0.508-0.028,0.8c-0.024,0.293-0.08,0.611-0.125,0.957c-0.096,0.692-0.187,1.495-0.439,2.369        c-0.38,1.775-1.186,3.879-2.477,6.113c-1.302,2.225-3.193,4.555-5.783,6.539c-2.582,1.965-5.853,3.643-9.64,4.331        c-3.76,0.664-8.013,0.562-12.073-0.967c-1.032-0.328-2.004-0.835-3.003-1.312c-0.947-0.568-1.943-1.094-2.824-1.807        c-0.936-0.641-1.756-1.442-2.613-2.215c-0.776-0.854-1.589-1.693-2.258-2.664c-1.372-1.9-2.569-4.014-3.295-6.339        c-0.752-2.311-1.156-4.766-1.188-7.263c0.033-2.496,0.437-4.951,1.19-7.261c0.726-2.324,1.923-4.437,3.295-6.337        c0.669-0.971,1.482-1.809,2.258-2.663c0.857-0.773,1.677-1.573,2.613-2.214c0.881-0.712,1.877-1.238,2.824-1.806        c0.998-0.477,1.97-0.984,3.002-1.312c4.059-1.528,8.311-1.631,12.071-0.967c3.786,0.687,7.058,2.365,9.64,4.33        c2.59,1.984,4.482,4.314,5.784,6.539c1.292,2.235,2.098,4.338,2.478,6.114c0.252,0.875,0.343,1.678,0.439,2.37        c0.045,0.346,0.101,0.664,0.125,0.957c0.01,0.292,0.019,0.559,0.028,0.8c0.012,0.455,0.022,0.814,0.029,1.085        C286.237,151.755,286.234,151.88,286.225,151.88z"/>
					</g>
				</g>
			</g>
		</g>
		<g>
			<rect x="256.636" y="143.612" style="fill:#FFFFFF;" width="4.793" height="16.535"/>
			<rect x="265.513" y="143.612" style="fill:#FFFFFF;" width="4.793" height="16.535"/>
		</g>
	</g>
</g>

<g id="Character">
	<g>
		<g>
			<g>
				<g>
					<g>
						<g>
							<g>
								<g>
									<g>
										<g>
											<g>
												<g>
													<g>
														<g>
															<g>
																<path style="fill:#455A64;" d="M138.494,442.248v23.795l48.959-0.232c-0.356-4.825-27.226-14.451-27.226-14.451                  l0.534-9.111H138.494z"/>
															</g>
														</g>
													</g>
												</g>
											</g>
										</g>
									</g>
								</g>
							</g>
						</g>
						<g style="opacity:0.6;">
							<g>
								<g>
									<g>
										<g>
											<g>
												<g>
													<g>
														<g>
															<g>
																<g>
																	<path style="fill:#FFFFFF;" d="M146.413,449.206c-0.939,0.282-1.574,1.391-1.341,2.377                   c0.233,0.985,1.315,1.667,2.259,1.402c0.943-0.264,1.745-1.572,1.407-2.524c-0.338-0.952-1.651-1.68-2.505-1.189"/>
																</g>
															</g>
														</g>
													</g>
												</g>
											</g>
										</g>
									</g>
								</g>
							</g>
						</g>
						<g>
							<g>
								<g>
									<g>
										<g>
											<g>
												<g>
													<g>
														<g>
															<g>
																<path style="fill:#263238;" d="M138.494,466.043v-3.8l46.743,0.542c0,0,2.437,1.437,2.215,3.026L138.494,466.043z"/>
															</g>
														</g>
													</g>
												</g>
											</g>
										</g>
									</g>
								</g>
							</g>
						</g>
						<g>
							<g>
								<g>
									<g>
										<g>
											<g>
												<g>
													<g>
														<g>
															<g>
																<g>
																	<path style="fill:#263238;" d="M160.226,451.819c-0.004,0.247-1.191,0.377-2.35,1.188                   c-1.179,0.78-1.767,1.858-1.987,1.763c-0.22-0.045,0.113-1.526,1.533-2.482                   C158.832,451.319,160.275,451.592,160.226,451.819z"/>
																</g>
															</g>
														</g>
													</g>
												</g>
											</g>
										</g>
									</g>
								</g>
							</g>
						</g>
						<g>
							<g>
								<g>
									<g>
										<g>
											<g>
												<g>
													<g>
														<g>
															<g>
																<g>
																	<path style="fill:#263238;" d="M166.641,454.021c0.058,0.238-0.966,0.673-1.758,1.73                   c-0.823,1.031-1.01,2.164-1.247,2.156c-0.223,0.042-0.408-1.401,0.601-2.695                   C165.235,453.91,166.632,453.786,166.641,454.021z"/>
																</g>
															</g>
														</g>
													</g>
												</g>
											</g>
										</g>
									</g>
								</g>
							</g>
						</g>
						<g>
							<g>
								<g>
									<g>
										<g>
											<g>
												<g>
													<g>
														<g>
															<g>
																<g>
																	<path style="fill:#263238;" d="M169.527,460.085c-0.215,0.056-0.564-1.173,0.027-2.534                   c0.582-1.366,1.695-1.916,1.799-1.712c0.137,0.201-0.574,0.937-1.043,2.062                   C169.815,459.015,169.762,460.057,169.527,460.085z"/>
																</g>
															</g>
														</g>
													</g>
												</g>
											</g>
										</g>
									</g>
								</g>
							</g>
						</g>
						<g>
							<g>
								<g>
									<g>
										<g>
											<g>
												<g>
													<g>
														<g>
															<g>
																<g>
																	<path style="fill:#263238;" d="M159.751,445.053c-0.096,0.226-1.192-0.098-2.535,0.016                   c-1.345,0.087-2.384,0.571-2.511,0.361c-0.14-0.176,0.868-1.106,2.451-1.217                   C158.737,444.088,159.865,444.858,159.751,445.053z"/>
																</g>
															</g>
														</g>
													</g>
												</g>
											</g>
										</g>
									</g>
								</g>
							</g>
						</g>
					</g>
				</g>
			</g>
			<g>
				<g>
					<g>
						<g>
							<path style="fill:#263238;" d="M160.023,452.884c0.036,0.005,0.161-0.507,0.105-1.454c-0.07-0.933-0.361-2.328-1.297-3.751         c-0.473-0.701-1.092-1.403-1.915-1.975c-0.398-0.273-1.018-0.572-1.653-0.284c-0.595,0.28-0.931,0.932-0.964,1.567         c0.063,2.449,1.857,4.708,4.302,5.567c2.509,0.861,5.161-0.202,6.613-1.924c0.356-0.439,0.699-0.884,0.878-1.469         c0.083-0.286,0.123-0.623,0.007-0.952c-0.111-0.323-0.373-0.581-0.666-0.688c-0.591-0.198-1.093-0.024-1.526,0.147         c-0.425,0.2-0.79,0.407-1.139,0.636c-1.389,0.907-2.275,1.955-2.799,2.715c-0.526,0.767-0.708,1.255-0.675,1.275         c0.11,0.11,1.013-1.879,3.728-3.551c0.655-0.368,1.514-0.897,2.206-0.661c0.303,0.122,0.424,0.472,0.279,0.889         c-0.128,0.41-0.442,0.826-0.77,1.212c-1.325,1.522-3.72,2.447-5.92,1.683c-2.173-0.716-3.811-2.88-3.876-4.836         c0.011-0.453,0.25-0.869,0.577-1.03c0.313-0.164,0.725-0.026,1.091,0.212c0.752,0.493,1.359,1.131,1.823,1.767         c0.926,1.295,1.28,2.596,1.428,3.486C159.994,452.364,159.964,452.881,160.023,452.884z"/>
						</g>
					</g>
				</g>
			</g>
		</g>
		<g>
			<g>
				<g>
					<g>
						<g>
							<g>
								<g>
									<g>
										<polygon style="fill:#455A64;" points="115.746,443.457 115.746,451.141 115.191,464.952 96.836,465.39 96.182,451.141             96.72,442.459           "/>
									</g>
								</g>
							</g>
						</g>
					</g>
				</g>
			</g>
			<g>
				<g>
					<g>
						<g>
							<g>
								<g>
									<g>
										<g>
											<path style="fill:#263238;" d="M106.116,463.911c-0.112,0.005,0.153-4.219,0.59-9.435             c0.437-5.217,0.883-9.45,0.994-9.456c0.112-0.005-0.153,4.218-0.59,9.435             C106.673,459.672,106.228,463.906,106.116,463.911z"/>
										</g>
									</g>
								</g>
							</g>
						</g>
					</g>
				</g>
			</g>
			<g>
				<g>
					<g>
						<g>
							<g>
								<g>
									<g>
										<polygon style="fill:#263238;" points="115.265,462.652 96.72,462.863 96.72,465.39 115.277,465.368           "/>
									</g>
								</g>
							</g>
						</g>
					</g>
				</g>
			</g>
			<g>
				<g>
					<g>
						<g>
							<g>
								<g>
									<g>
										<g>
											<path style="fill:#263238;" d="M96.766,454.713c-0.028-0.021,0.129-0.286,0.469-0.729c0.34-0.442,0.881-1.05,1.636-1.716             c0.756-0.662,1.738-1.381,2.964-1.951c1.214-0.578,2.696-0.986,4.278-0.972c3.175,0.004,5.845,1.527,7.16,3.046             c0.683,0.749,1.104,1.454,1.344,1.956c0.236,0.506,0.323,0.802,0.292,0.814c-0.1,0.055-0.543-1.124-1.922-2.506             c-1.335-1.387-3.868-2.759-6.881-2.766c-3.003-0.016-5.477,1.471-6.982,2.671             C97.59,453.789,96.843,454.775,96.766,454.713z"/>
										</g>
									</g>
								</g>
							</g>
						</g>
					</g>
				</g>
			</g>
		</g>
		<g>
			<path style="fill:#263238;" d="M157.067,263.965l-2.142-3.351l-68.587,3.222c0,0-1.315,21.308-0.362,29.109     c0.306,2.505,1.719,12.202,1.719,12.202l1.693,75.158c0.645,5.964,2.262,68.697,2.262,68.697h27.185l5.543-100.561     c0.585-11.193,0.161-28.154,0.725-40.536l9.338,37.934l6.954,23.341c0,0-1.5,11.578-3.144,25.361     c-2.303,19.313-2.222,53.598-2.222,53.598l27.906,0.446c0,0,3.875-35.617,6.909-56.417l2.604-24.825     c0.015-4.153-1.809-14.308-2.127-15.977L157.067,263.965z"/>
			<g>
				<path style="fill:#455A64;" d="M131.193,310.169c-0.012,0.033-0.458-0.118-1.256-0.422c-0.401-0.146-0.888-0.338-1.429-0.612      c-0.543-0.269-1.183-0.538-1.835-0.938c-0.665-0.376-1.395-0.789-2.13-1.309c-0.762-0.481-1.514-1.08-2.312-1.703      c-1.556-1.291-3.171-2.836-4.652-4.647c-1.467-1.822-2.661-3.711-3.607-5.5c-0.435-0.914-0.879-1.768-1.187-2.616      c-0.353-0.828-0.614-1.625-0.836-2.357c-0.251-0.723-0.385-1.403-0.529-1.992c-0.152-0.588-0.239-1.103-0.292-1.527      c-0.124-0.845-0.175-1.312-0.14-1.317c0.107-0.019,0.346,1.858,1.305,4.726c0.24,0.717,0.517,1.495,0.883,2.306      c0.32,0.829,0.772,1.664,1.212,2.559c0.955,1.751,2.142,3.603,3.586,5.397c1.458,1.783,3.038,3.314,4.555,4.607      c0.779,0.623,1.511,1.227,2.253,1.716c0.715,0.529,1.424,0.954,2.071,1.346C129.457,309.426,131.235,310.07,131.193,310.169z"/>
			</g>
			<g>
				<path style="fill:#455A64;" d="M157.68,280.305c0.006,0.05-0.901,0.207-2.371,0.07c-1.464-0.133-3.484-0.645-5.449-1.772      c-1.963-1.131-3.422-2.622-4.262-3.83c-0.85-1.209-1.155-2.078-1.109-2.097c0.08-0.042,0.497,0.76,1.396,1.879      c0.891,1.121,2.334,2.513,4.229,3.606c1.897,1.088,3.826,1.636,5.241,1.856C156.774,280.241,157.677,280.215,157.68,280.305z"/>
			</g>
		</g>
		<g>
			<path style="fill:#FFBE9D;" d="M214.765,169.572c0,0,2.167-4.924,2.923-5.923c0.755-0.999,4.114-4.837,4.114-4.837     s6.748-3.126,7.85-2.812c1.102,0.314,1.867,0.781,1.867,0.781l9.431-6.599c0,0,2.212-1.159,3.066,0.156     c0.855,1.316-0.323,2.312-0.827,2.926c-0.504,0.614-7.336,6.47-7.336,6.47l-0.251,0.461c0,0,2.543,0.785,2.552,2.173     c0.009,1.388-0.912,2.926-0.912,2.926s1.275,0.932,0.779,2.626c-0.497,1.694-0.497,1.694-0.497,1.694s1.53,1.011,1.287,2.706     c-0.243,1.695-4.285,4.605-4.285,4.605s-7.339,3.277-8.861,3.424c-1.522,0.146-4.988,1.016-4.988,1.016L214.765,169.572z"/>
			<g>
				<path style="fill:#EB996E;" d="M233.551,155.345c0.037,0.057-0.607,0.574-1.695,1.355c-1.102,0.756-2.601,1.86-4.546,2.644      c-1.957,0.689-3.751,1.046-4.867,1.744c-1.143,0.643-1.569,1.381-1.636,1.333c-0.06-0.012,0.28-0.871,1.446-1.639      c1.132-0.817,3.001-1.251,4.877-1.915c1.844-0.74,3.386-1.792,4.527-2.467C232.792,155.698,233.512,155.284,233.551,155.345z"/>
			</g>
			<g>
				<path style="fill:#EB996E;" d="M235.791,159.897c0.062,0.029-0.007,0.272-0.267,0.513c-0.253,0.242-0.652,0.494-1.109,0.706      c-0.921,0.417-1.688,0.625-1.749,0.512c-0.072-0.135,0.641-0.57,1.533-0.973c0.445-0.206,0.837-0.391,1.112-0.534      C235.586,159.981,235.725,159.861,235.791,159.897z"/>
			</g>
			<g>
				<path style="fill:#EB996E;" d="M237.291,165.035c0.102,0.094-0.206,0.592-0.751,1.043c-0.544,0.452-1.09,0.663-1.164,0.546      c-0.076-0.12,0.323-0.509,0.838-0.938C236.731,165.258,237.187,164.938,237.291,165.035z"/>
			</g>
			<g>
				<path style="fill:#EB996E;" d="M237.8,169.28c0.128,0.045-0.062,0.766-0.746,1.32c-0.68,0.559-1.425,0.601-1.443,0.466      c-0.033-0.142,0.548-0.384,1.121-0.861C237.314,169.74,237.668,169.219,237.8,169.28z"/>
			</g>
			<polygon style="fill:#FFBE9D;" points="215.088,168.555 202.458,176.723 207.467,192.977 223.534,179.607 222.559,172.355    "/>
		</g>
		<g>
			<g>
				<g>
					<g>
						<g>
							<g>
								<g>
									<g>
										<g>
											<g>
												<g>
													<g>
														<g>
															<g>
																<g>
																	<g>
																		<g>
																			<g>
																				<g>
																					<g>
																						<path style="fill:#FFBE9D;" d="M109.664,103.767l-0.546,43.97c-0.093,7.477,1.298,18.481,13.127,18.088l0,0                        c10.237-1.114,12.953-10.805,13.033-17.784c0.038-3.31,0.076-6.07,0.102-6.41c0,0,11.207-0.914,12.153-11.983                        c0.457-5.349,0.501-16.443,0.425-26.48c-0.081-10.78-8.441-19.684-19.192-20.469l-1.069-0.078                        C116.122,82.453,109.512,92.19,109.664,103.767z"/>
																					</g>
																				</g>
																			</g>
																		</g>
																	</g>
																</g>
															</g>
														</g>
													</g>
												</g>
											</g>
										</g>
									</g>
								</g>
							</g>
							<g>
								<g>
									<g>
										<g>
											<g>
												<g>
													<g>
														<g>
															<g>
																<g>
																	<g>
																		<g>
																			<g>
																				<g>
																					<g>
																						<path style="fill:#EB996E;" d="M135.38,141.632c0,0-7.013-0.101-14.113-5.318c0,0,2.928,8.349,14.056,8.159                        L135.38,141.632z"/>
																					</g>
																				</g>
																			</g>
																		</g>
																	</g>
																</g>
															</g>
														</g>
													</g>
												</g>
											</g>
										</g>
									</g>
								</g>
							</g>
						</g>
					</g>
				</g>
				<g>
					<g>
						<g>
							<g>
								<g>
									<g>
										<g>
											<g>
												<g>
													<g>
														<g>
															<g>
																<g>
																	<g>
																		<g>
																			<g>
																				<g>
																					<g>
																						<g>
																							<g>
																								<g>
																									<g>
																										<path style="fill:#263238;" d="M129.034,107.705c-0.22,0.224-1.498-0.805-3.353-0.855                            c-1.852-0.077-3.239,0.86-3.434,0.621c-0.096-0.106,0.133-0.515,0.738-0.94                            c0.596-0.423,1.602-0.822,2.757-0.782c1.155,0.041,2.114,0.505,2.66,0.968                            C128.96,107.183,129.142,107.605,129.034,107.705z"/>
																									</g>
																								</g>
																							</g>
																						</g>
																					</g>
																				</g>
																			</g>
																		</g>
																	</g>
																</g>
															</g>
														</g>
													</g>
												</g>
											</g>
										</g>
									</g>
									<g>
										<g>
											<g>
												<g>
													<g>
														<g>
															<g>
																<g>
																	<g>
																		<g>
																			<g>
																				<g>
																					<g>
																						<g>
																							<g>
																								<g>
																									<path style="fill:#263238;" d="M128.978,111.541c-0.03,0.792-0.725,1.42-1.553,1.404                           c-0.826-0.016-1.474-0.67-1.444-1.462c0.03-0.792,0.725-1.421,1.552-1.406                           C128.361,110.093,129.008,110.748,128.978,111.541z"/>
																								</g>
																							</g>
																						</g>
																					</g>
																				</g>
																			</g>
																		</g>
																	</g>
																</g>
															</g>
														</g>
													</g>
												</g>
											</g>
										</g>
									</g>
									<g>
										<g>
											<g>
												<g>
													<g>
														<g>
															<g>
																<g>
																	<g>
																		<g>
																			<g>
																				<g>
																					<g>
																						<g>
																							<g>
																								<g>
																									<path style="fill:#263238;" d="M133.679,120.605c-0.001-0.097,1.071-0.203,2.802-0.297                           c0.438-0.013,0.856-0.069,0.951-0.361c0.125-0.307-0.022-0.789-0.196-1.31                           c-0.332-1.082-0.679-2.216-1.044-3.404c-1.441-4.844-2.451-8.813-2.255-8.87                           c0.196-0.056,1.523,3.824,2.964,8.668c0.345,1.194,0.675,2.332,0.989,3.42                           c0.128,0.506,0.37,1.087,0.101,1.723c-0.141,0.316-0.477,0.529-0.761,0.583                           c-0.285,0.065-0.53,0.052-0.746,0.049C134.75,120.773,133.679,120.702,133.679,120.605z"/>
																								</g>
																							</g>
																						</g>
																					</g>
																				</g>
																			</g>
																		</g>
																	</g>
																</g>
															</g>
														</g>
													</g>
												</g>
											</g>
										</g>
									</g>
								</g>
							</g>
						</g>
						<g>
							<g>
								<g>
									<g>
										<g>
											<g>
												<g>
													<g>
														<g>
															<g>
																<g>
																	<g>
																		<g>
																			<g>
																				<g>
																					<path style="fill:#263238;" d="M128.245,100.732c-0.179,0.411-1.664,0.102-3.442,0.193                       c-1.78,0.054-3.239,0.483-3.445,0.088c-0.091-0.189,0.186-0.568,0.79-0.935                       c0.599-0.366,1.536-0.688,2.603-0.732c1.066-0.042,2.022,0.202,2.644,0.519                       C128.022,100.181,128.323,100.537,128.245,100.732z"/>
																				</g>
																			</g>
																		</g>
																	</g>
																</g>
															</g>
														</g>
													</g>
												</g>
											</g>
										</g>
									</g>
								</g>
							</g>
						</g>
						<g>
							<g>
								<g>
									<g>
										<g>
											<g>
												<g>
													<g>
														<g>
															<g>
																<g>
																	<g>
																		<g>
																			<g>
																				<g>
																					<path style="fill:#263238;" d="M145.858,104.169c-0.194,0.335-1.642-0.037-3.395-0.091                       c-1.754-0.086-3.209,0.17-3.394-0.18c-0.081-0.167,0.208-0.468,0.819-0.734                       c0.606-0.266,1.542-0.47,2.594-0.429c1.051,0.043,1.981,0.321,2.579,0.635                       C145.663,103.685,145.944,104.008,145.858,104.169z"/>
																				</g>
																			</g>
																		</g>
																	</g>
																</g>
															</g>
														</g>
													</g>
												</g>
											</g>
										</g>
									</g>
								</g>
							</g>
						</g>
					</g>
				</g>
				<g>
					<g>
						<g>
							<g>
								<g>
									<g>
										<g>
											<g>
												<g>
													<g>
														<g>
															<g>
																<g>
																	<path style="fill:#FFBE9D;" d="M109.97,112.036c-0.183-0.096-7.448-2.807-7.759,4.784                   c-0.311,7.592,7.375,6.338,7.397,6.121S109.97,112.036,109.97,112.036z"/>
																</g>
															</g>
														</g>
													</g>
												</g>
											</g>
										</g>
									</g>
								</g>
							</g>
						</g>
					</g>
				</g>
				<g>
					<g>
						<g>
							<g>
								<g>
									<g>
										<g>
											<g>
												<g>
													<g>
														<g>
															<g>
																<g>
																	<g>
																		<path style="fill:#EB996E;" d="M107.407,119.97c-0.033-0.026-0.136,0.087-0.364,0.18                    c-0.222,0.091-0.6,0.144-0.99-0.02c-0.79-0.327-1.413-1.628-1.394-2.998c0.009-0.691,0.181-1.344,0.448-1.878                    c0.255-0.546,0.63-0.919,1.037-0.974c0.405-0.076,0.682,0.177,0.765,0.394c0.093,0.216,0.039,0.366,0.078,0.381                    c0.021,0.02,0.168-0.12,0.12-0.437c-0.025-0.152-0.107-0.335-0.279-0.488c-0.176-0.155-0.441-0.242-0.723-0.223                    c-0.587,0.017-1.136,0.534-1.43,1.12c-0.326,0.588-0.535,1.321-0.545,2.097c-0.014,1.532,0.711,2.995,1.795,3.358                    c0.529,0.161,0.98,0.019,1.218-0.151C107.385,120.153,107.432,119.985,107.407,119.97z"/>
																	</g>
																</g>
															</g>
														</g>
													</g>
												</g>
											</g>
										</g>
									</g>
								</g>
							</g>
						</g>
					</g>
				</g>
				<g>
					<path style="fill:#263238;" d="M131.888,125.862c0.083-0.192-1.405-0.637-2.45-2.033c-0.523-0.687-0.824-1.436-1.051-1.983       c-0.221-0.551-0.389-0.897-0.471-0.872c-0.077,0.024-0.058,0.397,0.064,0.997c0.127,0.593,0.385,1.441,0.977,2.221       c0.583,0.788,1.365,1.259,1.939,1.485C131.476,125.912,131.868,125.926,131.888,125.862z"/>
				</g>
				<g>
					<g>
						<g>
							<g>
								<g>
									<g>
										<g>
											<g>
												<g>
													<path style="fill:#263238;" d="M145.941,108.403c-0.22,0.224-1.498-0.805-3.353-0.855               c-1.852-0.077-3.239,0.86-3.434,0.621c-0.096-0.106,0.133-0.515,0.737-0.94c0.596-0.423,1.602-0.822,2.757-0.782               c1.155,0.041,2.114,0.505,2.661,0.968C145.867,107.881,146.048,108.303,145.941,108.403z"/>
												</g>
											</g>
										</g>
									</g>
								</g>
							</g>
						</g>
					</g>
				</g>
				<g>
					<g>
						<g>
							<g>
								<g>
									<g>
										<g>
											<g>
												<path style="fill:#263238;" d="M145.636,112.079c-0.03,0.792-0.725,1.42-1.553,1.405              c-0.826-0.016-1.474-0.67-1.444-1.462c0.03-0.792,0.725-1.421,1.552-1.406              C145.019,110.632,145.666,111.287,145.636,112.079z"/>
											</g>
										</g>
									</g>
								</g>
							</g>
						</g>
					</g>
				</g>
			</g>
			<g>
				<path style="fill:#263238;" d="M155.68,88.47c-1.425-2.492-4.873-3.583-7.471-2.364c0.683-3.485-1.197-7.314-4.372-8.906      s-7.368-0.807-9.752,1.826c-0.15-0.944-0.815-1.752-1.633-2.246c-0.818-0.495-1.775-0.71-2.725-0.813      c-2.956-0.321-6.016,0.401-8.516,2.011c-1.31,0.844-2.456,1.933-3.39,3.18c-4.39-0.516-9.046,1.091-12.021,4.386      c-3.566,3.95-4.238,13.106-0.332,21.014l0.92,4.959c1.225-0.003,2.346,0.084,3.101,0.763c1.026,0.923,1.485,2.658,3.19,2      c0.868-0.336,1.66-2.156,1.95-3.04c1.927-5.867,2.567-12.151,1.871-18.286c1.213-1.294,2.678-2.351,4.288-3.095l-0.131,0.118      c3.093-1.075,6.593-2.132,9.528-0.679c2.277,1.127,3.615,3.489,5.317,5.374c3.226,3.573,7.577,5.514,12.386,5.721      c0.164,3.117-0.098,7.522,0.065,10.639l2.622-4.993l0.002,0.025c0.215-0.365,0.392-0.734,0.564-1.103l0.059-0.112l0-0.014      c0.001-0.001,0.001-0.003,0.002-0.004c0.48-0.39,0.843-1.103,1.653-2.031c1.566-1.794,2-4.498,1.074-6.691      C156.297,94.486,157.105,90.962,155.68,88.47z"/>
				<polygon style="fill:#263238;" points="152.106,103.088 152.096,103.079 152.096,103.079     "/>
			</g>
			<g>
				<path style="fill:#455A64;" d="M151.142,88.584c0.008-0.002,0.026,0.054,0.055,0.163c0.031,0.109,0.06,0.275,0.07,0.491      c0.022,0.428-0.048,1.086-0.442,1.779c-0.197,0.343-0.475,0.69-0.848,0.982c-0.374,0.286-0.851,0.511-1.384,0.59      c-1.05,0.172-2.351-0.183-3.165-1.191l0.188-0.162c0.359,0.385,0.556,0.939,0.535,1.488c-0.02,0.739-0.341,1.436-0.848,1.913      c-0.517,0.474-1.175,0.701-1.795,0.764c-1.262,0.123-2.357-0.349-3.121-0.858c-0.776-0.517-1.307-1.052-1.668-1.418      c-0.359-0.371-0.543-0.588-0.531-0.599c0.013-0.013,0.221,0.182,0.599,0.529c0.38,0.343,0.926,0.853,1.696,1.338      c0.758,0.48,1.814,0.906,3.001,0.778c0.581-0.063,1.191-0.284,1.652-0.713c0.455-0.43,0.749-1.073,0.766-1.739      c0.019-0.497-0.156-0.977-0.465-1.313l0.188-0.162c0.74,0.927,1.954,1.277,2.936,1.128c1.01-0.135,1.742-0.798,2.123-1.439      c0.394-0.65,0.489-1.278,0.494-1.694C151.181,88.818,151.119,88.589,151.142,88.584z"/>
			</g>
			<g>
				<path style="fill:#455A64;" d="M141.643,80.264c0.004-0.007,0.06,0.018,0.163,0.073c0.101,0.058,0.249,0.147,0.423,0.286      c0.344,0.273,0.831,0.736,1.145,1.487c0.317,0.732,0.357,1.821-0.261,2.735c-0.301,0.448-0.792,0.829-1.383,0.95      c-0.581,0.122-1.241,0.029-1.769-0.343c-0.166-0.119-0.307-0.268-0.421-0.419l0.217-0.123c0.242,0.568,0.177,1.2-0.057,1.706      c-0.23,0.513-0.646,0.911-1.104,1.131c-0.933,0.448-1.915,0.302-2.586-0.005c-0.686-0.313-1.123-0.746-1.393-1.051      c-0.27-0.311-0.38-0.509-0.369-0.517c0.016-0.012,0.152,0.167,0.438,0.452c0.286,0.28,0.73,0.68,1.393,0.957      c0.646,0.273,1.571,0.383,2.417-0.039c0.416-0.208,0.779-0.564,0.984-1.029c0.208-0.458,0.258-1.019,0.048-1.506l-0.401-0.932      l0.618,0.809c0.099,0.129,0.219,0.257,0.363,0.361c0.458,0.324,1.051,0.413,1.572,0.306c0.526-0.105,0.962-0.435,1.244-0.841      c0.575-0.828,0.565-1.839,0.286-2.538c-0.275-0.719-0.725-1.188-1.042-1.477C141.843,80.407,141.63,80.284,141.643,80.264z"/>
			</g>
		</g>
		<g>
			<g>
				<g>
					<g>
						<path style="fill:#FF725E;" d="M79.162,172.102c0,0-8.179,46.454-7.784,50.798c0.395,4.344,2.57,11.254,7.504,12.439        c4.934,1.185,9.475,0,9.475,0l-5.923-57.059L79.162,172.102z"/>
					</g>
					<path style="fill:#FF725E;" d="M156.691,243.665l-1.506-21.113l0.449-28.406l-7.008-42.079l-9.665-1.982l-1.282-5.036       c0,0-7.892-5.827-20.908-5.995c-4.004-0.052-9.668,1.522-12.833,3.977l-0.828,5.11c0,0-9.789,6.958-11.952,9.004       c-9.049,8.559-10.943,12.061-11.996,14.957c-1.053,2.896,6.282,70.154,6.282,70.154l-0.976,12.121l-1.497,8.091       c-0.707,3.029,0.706,7.467,3.814,7.598h69.975C159.924,270.138,157.295,246.771,156.691,243.665z"/>
					<path style="fill:#FF725E;" d="M204.963,171.886l-16.479,10.175c-3.053-2.667-4.031,0.516-4.031,0.516       s-15.611-11.843-22.083-18.306c-7.233-7.225-12.13-11.579-14.356-11.75c-0.638-0.049-10.874,1.648-10.874,1.648       s0,0-3.009,10.328c-3.009,10.329,10.038,28.096,10.038,28.096l16.376,8.305c1.594,1.45,10.099,6.572,18.746,9.966       c4.695,1.843,10.03,0.878,13.838-2.43l24.281-21.144C213.343,176.348,204.963,171.886,204.963,171.886z"/>
					<g>
						<g>
							<path style="fill:#263238;" d="M138.962,150.085c-0.003,0.01-0.128-0.016-0.362-0.074c-0.264-0.07-0.602-0.159-1.019-0.269         c-0.887-0.225-2.174-0.535-3.782-0.838c-3.21-0.632-7.699-1.228-12.68-1.563c-4.984-0.303-9.515-0.275-12.771,0.038         c-1.629,0.14-2.938,0.343-3.837,0.506c-0.423,0.084-0.766,0.151-1.034,0.204c-0.237,0.044-0.364,0.062-0.366,0.051         c-0.003-0.01,0.118-0.048,0.351-0.111c0.265-0.067,0.605-0.154,1.025-0.261c0.895-0.199,2.206-0.436,3.839-0.604         c3.265-0.369,7.813-0.432,12.811-0.127c4.995,0.336,9.493,0.968,12.703,1.656c1.607,0.332,2.892,0.674,3.771,0.935         c0.412,0.133,0.745,0.24,1.006,0.324C138.846,150.03,138.965,150.075,138.962,150.085z"/>
						</g>
					</g>
					<g style="opacity:0.3;">
						<g>
							<path d="M103.337,148.082c10.753,1.903,21.651,0.018,33.03,1.364C125.38,147.171,113.938,146.093,103.337,148.082"/>
						</g>
					</g>
					<g style="opacity:0.3;">
						<g>
							<path d="M84.469,235.426c-6.048-14.164-5.332-30.175-4.512-45.554L84.469,235.426z"/>
						</g>
					</g>
					<g>
						<g>
							<path style="fill:#263238;" d="M79.862,182.154c0.005,0,0.015,0.055,0.028,0.164c0.014,0.124,0.031,0.284,0.053,0.484         c0.041,0.445,0.1,1.068,0.174,1.862c0.141,1.637,0.341,3.973,0.589,6.852c0.488,5.786,1.152,13.78,1.959,22.603         c0.81,8.826,1.637,16.808,2.312,22.578c0.331,2.886,0.62,5.219,0.823,6.831c0.096,0.792,0.172,1.414,0.226,1.857         c0.021,0.2,0.038,0.36,0.051,0.484c0.01,0.109,0.012,0.166,0.007,0.166s-0.018-0.055-0.038-0.163         c-0.021-0.123-0.048-0.282-0.081-0.481c-0.068-0.442-0.162-1.062-0.283-1.851c-0.239-1.608-0.56-3.939-0.919-6.823         c-0.73-5.767-1.59-13.749-2.401-22.577c-0.808-8.825-1.438-16.822-1.871-22.612c-0.207-2.881-0.375-5.219-0.493-6.858         c-0.05-0.795-0.089-1.42-0.117-1.866c-0.009-0.201-0.017-0.361-0.023-0.486C79.856,182.21,79.857,182.154,79.862,182.154z"/>
						</g>
					</g>
					<g>
						<g>
							<path style="fill:#263238;" d="M125.677,174.629c0,0.01-0.153,0.018-0.443,0.024c-0.319,0.002-0.741,0.005-1.269,0.009         c-1.101-0.004-2.695,0.012-4.663,0.058c-3.936,0.089-9.372,0.377-15.337,1.084c-5.966,0.714-11.319,1.709-15.165,2.546         c-1.924,0.417-3.477,0.775-4.546,1.038c-0.514,0.12-0.924,0.217-1.235,0.289c-0.283,0.063-0.433,0.091-0.436,0.081         s0.142-0.058,0.42-0.14c0.307-0.087,0.714-0.201,1.222-0.344c1.061-0.298,2.608-0.689,4.529-1.133         c3.84-0.892,9.198-1.923,15.176-2.638c5.977-0.708,11.427-0.963,15.369-0.997c1.971-0.019,3.567-0.002,4.669,0.038         c0.527,0.02,0.949,0.036,1.268,0.048C125.525,174.606,125.677,174.619,125.677,174.629z"/>
						</g>
					</g>
					<g>
						<g>
							<path style="fill:#263238;" d="M99.294,189.671c-0.084-0.003,0.074-6.436,0.353-14.367c0.279-7.933,0.572-14.36,0.656-14.357         c0.084,0.003-0.074,6.435-0.353,14.368C99.671,183.246,99.377,189.674,99.294,189.671z"/>
						</g>
					</g>
					<g>
						<g>
							<path style="fill:#263238;" d="M145.943,191.07c-0.009,0.007-0.128-0.116-0.346-0.355c-0.234-0.263-0.548-0.614-0.941-1.055         c-0.839-0.94-2.017-2.259-3.464-3.879c-1.433-1.656-3.15-3.653-4.542-6.164c-0.683-1.257-1.28-2.637-1.701-4.123         c-0.401-1.491-0.635-3.073-0.729-4.704c-0.153-3.252,0.159-6.42,1.186-9.149c0.503-1.363,1.183-2.605,1.98-3.675         c0.8-1.069,1.721-1.955,2.643-2.669c1.858-1.431,3.736-2.123,5.046-2.38c1.319-0.266,2.064-0.209,2.064-0.209         c0.003,0.04-0.744,0.027-2.036,0.324c-1.285,0.289-3.114,1-4.92,2.425c-0.897,0.712-1.79,1.59-2.565,2.644         c-0.771,1.054-1.43,2.276-1.916,3.62c-0.995,2.688-1.296,5.817-1.144,9.046c0.093,1.613,0.321,3.174,0.712,4.645         c0.411,1.466,0.993,2.828,1.66,4.074c1.359,2.488,3.045,4.49,4.451,6.16c1.411,1.645,2.56,2.985,3.378,3.94         c0.373,0.456,0.669,0.82,0.891,1.091C145.852,190.928,145.952,191.063,145.943,191.07z"/>
						</g>
					</g>
					<g style="opacity:0.3;">
						<g>
							<path d="M83.694,179.722c4.34-0.224,8.661-0.794,12.91-1.703c-0.525,1.875-0.77,3.829-0.723,5.776         c1.345-1.51,2.335-3.333,2.87-5.283c0.298,2.124,1.506,4.105,3.257,5.344c0.429-1.926,0.528-3.926,0.29-5.885         c6.424-0.774,12.813-1.832,19.144-3.168c-12.81-0.314-25.665,1.287-38.006,4.732"/>
						</g>
					</g>
				</g>
			</g>
			<g>
				<path style="fill:#263238;" d="M217.119,187.87c0.011,0.014-0.192,0.206-0.589,0.56c-0.435,0.38-1.019,0.889-1.752,1.529      c-1.575,1.344-3.787,3.232-6.504,5.55c-2.769,2.339-6.049,5.109-9.686,8.182c-1.819,1.538-3.661,3.233-5.681,4.886      c-0.998,0.831-2.124,1.609-3.319,2.232c-0.594,0.324-1.207,0.628-1.85,0.889c-0.647,0.252-1.305,0.503-2.08,0.515      c-0.151-0.014-0.257,0-0.472-0.101l0.2,0.029c-1.411,0.333-2.819,0.169-4.132-0.117c-1.32-0.289-2.578-0.707-3.79-1.168      c-2.418-0.939-4.657-2.044-6.751-3.158c-4.181-2.243-7.79-4.523-10.786-6.478c-2.993-1.961-5.365-3.619-6.992-4.779      c-0.779-0.566-1.398-1.017-1.861-1.353c-0.421-0.315-0.637-0.488-0.627-0.502c0.01-0.014,0.246,0.13,0.686,0.419      c0.476,0.317,1.114,0.741,1.915,1.274c1.661,1.109,4.061,2.721,7.074,4.64c3.016,1.913,6.637,4.156,10.81,6.365      c2.089,1.096,4.319,2.185,6.71,3.106c1.197,0.451,2.436,0.859,3.719,1.138c1.275,0.279,2.627,0.42,3.893,0.12l0.2,0.029      c-0.012-0.007,0.128,0.028,0.217,0.024c0.609-0.005,1.267-0.234,1.877-0.478c0.617-0.249,1.217-0.545,1.8-0.863      c1.187-0.618,2.244-1.347,3.246-2.174c2.004-1.631,3.858-3.322,5.692-4.856c3.664-3.042,6.968-5.784,9.758-8.1      c2.76-2.267,5.008-4.112,6.608-5.426c0.759-0.609,1.362-1.094,1.813-1.455C216.883,188.023,217.108,187.857,217.119,187.87z"/>
			</g>
		</g>
	</g>
</g>
</svg>
